<?xml version="1.0" standalone="no"?>
<!DOCTYPE svg PUBLIC "-//W3C//DTD SVG 1.1//EN" "http://www.w3.org/Graphics/SVG/1.1/DTD/svg11.dtd" >
<svg xmlns="http://www.w3.org/2000/svg" xmlns:xlink="http://www.w3.org/1999/xlink" version="1.1">
<metadata>
Created by FontForge 20170731 at Thu Sep  6 19:53:11 2001
 By Aleksey,,,
cpoyright: designsalon - www.designsalon.de
</metadata>
<defs>
<font id="Xscale" horiz-adv-x="615" >
  <font-face 
    font-family="xscale"
    font-weight="700"
    font-stretch="normal"
    units-per-em="1000"
    panose-1="0 0 7 0 0 0 0 0 0 0"
    ascent="806"
    descent="-194"
    x-height="360"
    cap-height="360"
    bbox="-36.125 -82 1293 806"
    underline-thickness="77"
    underline-position="-215"
    unicode-range="U+0020-F002"
  />
<missing-glyph horiz-adv-x="500" 
d="M63 0v806h375v-806h-375zM125 63h250v681h-250v-681z" />
    <glyph glyph-name=".notdef" horiz-adv-x="500" 
d="M63 0v806h375v-806h-375zM125 63h250v681h-250v-681z" />
    <glyph glyph-name=".null" horiz-adv-x="0" 
 />
    <glyph glyph-name="nonmarkingreturn" horiz-adv-x="290" 
 />
    <glyph glyph-name="space" unicode=" " horiz-adv-x="290" 
 />
    <glyph glyph-name="exclam" unicode="!" horiz-adv-x="265" 
d="M54 99v261h157v-261h-157zM47 42q-2 22 33 34q26 9 52 9q36 0 60.5 -12.5t24.5 -29.5q0 -18 -25 -30.5t-60 -12.5q-26 0 -51 9q-32 11 -34 33z" />
    <glyph glyph-name="quotedbl" unicode="&#x22;" horiz-adv-x="363" 
d="M38 240l21 120h108l-21 -120h-108zM196 240l21 120h108l-21 -120h-108z" />
    <glyph glyph-name="numbersign" unicode="#" horiz-adv-x="584" 
d="M38 107l13 30h115l37 86h-116l13 30h115l44 104h60l-44 -104h96l44 104h60l-44 -104h115l-12 -30h-115l-37 -86h115l-13 -30h-115l-44 -103h-60l44 103h-96l-44 -103h-60l44 103h-115zM226 137h96l37 86h-97z" />
    <glyph glyph-name="dollar" unicode="$" horiz-adv-x="525" 
d="M32 212v78q0 8 5 18q26 52 141 52h70v29h36v-29h208v-76h-208v-65h66q65 0 95.5 -12.5t45.5 -45.5q2 -5 2 -12v-73q0 -5 -2 -16q-19 -51 -128 -59q-13 -1 -22 -1h-57v-39h-36v39h-216v77h216v66h-72q-101 0 -134 45q-10 13 -10 24zM284 77l5 1h12q39 2 39 22v24
q0 19 -34 19h-22v-66zM186 242q0 -23 52 -23h10v65l-7 -1h-20q-28 -1 -34 -15q-1 -1 -1 -4v-22z" />
    <glyph glyph-name="percent" unicode="%" horiz-adv-x="919" 
d="M536 58v68q0 4 2 9q20 49 121 49h112q27 0 54 -6q69 -13 69 -52v-68q0 -14 -14 -28q-29 -29 -109 -29h-112q-101 0 -121 49q-2 4 -2 8zM657 83q0 -9 10.5 -14.5t24.5 -5.5h46q26 0 33 11q2 3 2 9v18q0 10 -10 15.5t-25 5.5h-46q-17 0 -29 -9q-6 -4 -6 -12v-18zM191 0
l405 360h140l-402 -360h-143zM25 235v68q0 3 2 8q18 49 121 49h112q7 0 19 -1q87 -7 102 -48q2 -5 2 -8v-68q0 -7 -6 -18q-20 -33 -98 -39q-12 -1 -19 -1h-112q-7 0 -19 1q-86 7 -102 48q-2 5 -2 9zM146 259q0 -9 9 -14q13 -6 26 -6h46q13 0 26 6q9 5 9 14v19q0 9 -10 14.5
t-25 5.5h-46q-26 0 -33 -12q-2 -3 -2 -8v-19z" />
    <glyph glyph-name="ampersand" unicode="&#x26;" horiz-adv-x="704" 
d="M32 115q0 4 2 10q13 40 85 62l15 5l-32 25q-16 16 -16 34v33q0 35 42 55.5t115 20.5h97q92 0 131 -33q22 -18 22 -35v-37q0 -15 -5 -22.5t-26 -22.5q-31 -23 -65 -31l-29 -6l72 -40v2l1 2v34h158l-1 -53q0 -20 -21 -42q-1 -1 -13 -11l115 -65h-203l-22 13
q-46 -13 -110 -13h-138q-114 0 -157 44q-17 17 -17 33v38zM185 94q0 -16 40 -19q6 -1 11 -1l92 1q1 0 16 1l-112 62l-14 -4l-11 -2q-22 -5 -22 -19v-19zM238 260q0 -5 2.5 -8.5t2.5 -4.5l7 -7q2 -2 8 -7l13 -7l35 8q21 5 28.5 13t7.5 13v9q0 10 -15 15q-11 5 -22 5h-31
q-36 0 -36 -18v-11z" />
    <glyph glyph-name="quotesingle" unicode="'" horiz-adv-x="205" 
d="M38 240l21 120h108l-21 -120h-108z" />
    <glyph glyph-name="parenleft" unicode="(" horiz-adv-x="308" 
d="M47 286q0 11 9 26q14 23 57 48h170l-5 -3l-15 -8q-35 -19 -47 -36.5t-12 -46.5v-171q0 -30 12 -47.5t47 -36.5l15 -8l5 -3h-170q-6 4 -18 11q-48 35 -48 63v212z" />
    <glyph glyph-name="parenright" unicode=")" horiz-adv-x="308" 
d="M25 0l5 3l14 8q35 20 47.5 37.5t12.5 46.5v171q0 28 -12.5 45.5t-47.5 37.5l-19 11h170q66 -38 66 -74v-212q0 -11 -10 -26q-17 -25 -56 -48h-170z" />
    <glyph glyph-name="asterisk" unicode="*" horiz-adv-x="440" 
 />
    <glyph glyph-name="plus" unicode="+" horiz-adv-x="607" 
d="M34 145v71h203v101h134v-101h202v-71h-202v-101h-134v101h-203z" />
    <glyph glyph-name="comma" unicode="," horiz-adv-x="224" 
d="M25 -54l50 54q-50 12 -49 40q1 19 26 31t60 12t61 -13t26 -32q0 -11 -11 -23l-65 -68z" />
    <glyph glyph-name="hyphen" unicode="-" horiz-adv-x="323" 
d="M25 127v66h273v-66h-273z" />
    <glyph glyph-name="hyphen" unicode="&#x2010;" horiz-adv-x="323" 
d="M25 127v66h273v-66h-273z" />
    <glyph glyph-name="period" unicode="." horiz-adv-x="221" 
d="M25 42q-2 22 33 34q26 9 52 9q36 0 60.5 -12.5t24.5 -29.5q0 -18 -25 -30.5t-60 -12.5q-26 0 -51 9q-32 11 -34 33z" />
    <glyph glyph-name="slash" unicode="/" horiz-adv-x="595" 
d="M25 0l405 360h140l-403 -360h-142z" />
    <glyph glyph-name="zero" unicode="0" horiz-adv-x="608" 
d="M51 78v205q0 39 52 61q39 16 109 16h184q70 0 109 -16q52 -22 52 -61v-205q0 -78 -162 -78h-183q-161 0 -161 78zM206 103q0 -25 51 -25h94q51 0 51 25v155q0 25 -51 25h-94q-51 0 -51 -25v-155z" />
    <glyph glyph-name="one" unicode="1" horiz-adv-x="607" 
d="M226 0v360h155v-360h-155z" />
    <glyph glyph-name="two" unicode="2" horiz-adv-x="607" 
d="M70 360h303q165 0 164 -78l-1 -82q0 -19 -27 -38q-40 -28 -120 -28h-129q-35 -2 -35 -21v-35h312v-78h-467v136q0 35 40 56t103 21l133 1q36 0 36 20v27q0 19 -35 22h-277v77z" />
    <glyph glyph-name="three" unicode="3" horiz-adv-x="607" 
d="M62 0v80h287q19 0 26 10v33q0 16 -33 19h-9h-117v76h117h5q3 1 4 1q33 2 33 19v33q0 10 -26 10h-287v79h308q78 0 119 -19.5t41 -47.5v-57q0 -22 -30 -38q-23 -13 -49 -18q79 -17 79 -55v-58q0 -28 -40.5 -47.5t-119.5 -19.5h-308z" />
    <glyph glyph-name="four" unicode="4" horiz-adv-x="608" 
d="M46 178l150 182h167l-150 -183h167v183h155l-1 -360h-154v100h-203q-81 0 -117 22q-24 14 -24 32q0 11 10 24z" />
    <glyph glyph-name="five" unicode="5" horiz-adv-x="606" 
d="M67 0v80l278 1q31 0 31 16v34q0 1 -1 4q-4 15 -32 18h-4q-3 1 -5 1h-267v206h465v-80h-309v-48h154q15 0 28 -1q125 -10 125 -77v-78q0 -35 -41 -55.5t-110 -20.5h-312z" />
    <glyph glyph-name="six" unicode="6" horiz-adv-x="608" 
d="M47 83v197q0 42 39.5 61t130.5 19h303v-79h-286q-32 0 -32 -19v-30h221q138 0 138 -75v-84q0 -7 -4 -16q-24 -57 -147 -57h-202q-161 0 -161 83zM202 105q0 -25 51 -25h115q38 3 38 20v34q0 17 -40 20h-4q-2 1 -4 1h-104q-1 0 -4 -1h-4q-44 -3 -44 -23v-26z" />
    <glyph glyph-name="seven" unicode="7" horiz-adv-x="608" 
d="M55 283v77h363q55 0 87 -14.5t32 -37.5q0 -13 -10 -26l-203 -282h-165l204 283h-308z" />
    <glyph glyph-name="eight" unicode="8" horiz-adv-x="607" 
d="M48 76v51q0 39 76 56q-76 16 -76 55v51q0 44 70 62q31 8 96 8h178q65 0 96 -8q70 -18 70 -62v-51q0 -39 -75 -55q75 -17 75 -56v-51q0 -48 -70 -68q-29 -9 -96 -9h-178q-66 0 -96 9q-70 20 -70 68zM203 96q0 -10 11 -14.5t18 -4.5h142q29 3 29 19v31q0 2 -3 7
q-9 9 -34 11h-126q-25 -2 -33 -11q-4 -5 -4 -7v-31zM203 235q5 -13 45 -13h111q30 0 39 6q5 3 5 7v29q0 18 -45 18h-110q-45 0 -45 -18v-29z" />
    <glyph glyph-name="nine" unicode="9" horiz-adv-x="608" 
d="M47 203v84q0 42 59 61q39 12 92 12h201q162 0 162 -83v-197q0 -42 -39.5 -61t-130.5 -19h-303v80h286q2 0 8 1q24 3 24 17v30h-222q-137 0 -137 75zM202 227q0 -21 47 -21h104h4.5h3.5q45 3 45 23v26q0 25 -52 25h-115q-37 -3 -37 -20v-33z" />
    <glyph glyph-name="colon" unicode=":" horiz-adv-x="251" 
d="M40 42q-2 22 33 34q26 9 52 9q36 0 60.5 -12.5t24.5 -29.5q0 -18 -25 -30.5t-60 -12.5q-26 0 -51 9q-32 11 -34 33zM40 226q-2 22 33 35q26 9 52 9q36 0 60.5 -13t24.5 -30q0 -18 -25 -30t-60 -12q-26 0 -51 8q-32 12 -34 33z" />
    <glyph glyph-name="semicolon" unicode=";" horiz-adv-x="254" 
d="M40 226q-2 22 33 35q26 9 52 9q36 0 60.5 -13t24.5 -30q0 -18 -25 -30t-60 -12q-26 0 -51 8q-32 12 -34 33zM40 -54l50 54q-50 12 -49 40q1 19 26 31t60 12t61 -13t26 -32q0 -11 -11 -23l-65 -68z" />
    <glyph glyph-name="less" unicode="&#x3c;" horiz-adv-x="497" 
d="M38 180l421 118v-61l-215 -57l215 -56v-62z" />
    <glyph glyph-name="equal" unicode="=" horiz-adv-x="607" 
d="M34 84v71h539v-71h-539zM34 203v71h539v-71h-539z" />
    <glyph glyph-name="greater" unicode="&#x3e;" horiz-adv-x="497" 
d="M38 62v62l215 56l-215 57v61l421 -118z" />
    <glyph glyph-name="question" unicode="?" horiz-adv-x="540" 
d="M25 283v77h323q124 0 143 -63q2 -7 2 -15v-80q0 -7 -4 -15q-27 -51 -132 -51h-64v-37h-155v50q0 15 17 29q34 28 108 28h37l7 1q20 0 28 7q3 3 3 10v40q0 15 -33 18q-3 1 -9 1h-271zM128 42q-2 22 33 34q26 9 52 9q36 0 60.5 -12.5t24.5 -29.5q0 -18 -25 -30.5t-60 -12.5
q-26 0 -51 9q-32 11 -34 33z" />
    <glyph glyph-name="at" unicode="@" horiz-adv-x="788" 
d="M459 114q-8 -10 -20 -17q-35 -21 -82 -21q-24 0 -49 5q-88 19 -81 90q3 36 37 68q28 27 67 40.5t81 13.5q67 0 90 -29l8 25h51l-36 -105l-13 -41q-6 -20 1 -31q12 -20 52 -13q22 3 54 21q61 34 61 93q0 55 -71 90.5t-180 35.5q-23 0 -47 -1q-111 -9 -183.5 -53.5
t-72.5 -107.5q0 -39 30 -71q81 -88 261 -88q160 0 275 76l15 -25q-9 -7 -24 -15q-115 -61 -271 -62q-118 0 -218 37q-137 51 -137 151q0 110 184 163q85 24 185 24q134 0 222.5 -43t88.5 -109q0 -17 -7 -35q-30 -79 -139 -101q-24 -6 -48 -6q-76 0 -84 34v7zM290 146
q4 -43 61 -47q59 -5 100 52q4 5 17 35l4 9l5 17q5 17 3 28q-6 30 -64 30q-14 0 -27 -2q-50 -11 -80 -55q-7 -10 -12 -24q-9 -24 -7 -43z" />
    <glyph glyph-name="A" unicode="A" horiz-adv-x="633" 
d="M-4 0l199 316q30 48 122 48q91 0 121 -48l199 -316h-162l-49 78h-219l-49 -78h-162zM253 151h127l-73 117z" />
    <glyph glyph-name="B" unicode="B" horiz-adv-x="611" 
d="M47 360h372q107 0 134 -39q9 -13 9 -42v-29q0 -52 -62 -69q64 -14 64 -64v-36q0 -81 -152 -81h-365v360zM202 142v-64h170q35 2 35 20v23q0 18 -38 21h-167zM202 283v-63h171q36 2 36 19v24q0 10 -17 17q-11 3 -19 3h-171z" />
    <glyph glyph-name="C" unicode="C" horiz-adv-x="550" 
d="M47 80v198q0 47 36.5 64.5t132.5 17.5h302v-77h-280q-30 -2 -36 -16v-158q0 -20 14 -27q8 -4 32 -4h13h257v-78h-325q-26 0 -54 6q-92 18 -92 74z" />
    <glyph glyph-name="D" unicode="D" horiz-adv-x="617" 
d="M47 0v360h368q155 0 155 -79v-202q0 -5 -2 -13q-16 -66 -147 -66h-374zM202 78h159q26 0 34 2q16 5 19 24q1 1 1 5v157q-7 17 -55 17h-158v-205z" />
    <glyph glyph-name="E" unicode="E" horiz-adv-x="557" 
d="M47 75v207q0 7 3 16q20 62 147 62h320v-77h-279q-3 -1 -10 -2q-26 -5 -26 -21v-40h315v-78h-315v-40q0 -22 40 -24h275v-78h-298q-172 0 -172 75z" />
    <glyph glyph-name="F" unicode="F" horiz-adv-x="541" 
d="M47 287q0 55 81 69q25 4 82 4h306v-77h-261q-46 0 -52 -18q-1 -1 -1 -5v-40h314v-78h-314v-142h-155v287z" />
    <glyph glyph-name="G" unicode="G" horiz-adv-x="609" 
d="M47 102v169q0 50 39 69.5t138 19.5h292v-77h-286q-24 -2 -28 -15v-175q6 -13 33 -15h123q45 0 49 16v113h155v-115q0 -35 -14 -49q-40 -43 -145 -43h-178q-96 0 -141 24q-26 14 -33 32q-4 12 -4 46z" />
    <glyph glyph-name="H" unicode="H" horiz-adv-x="622" 
d="M47 0v360h155v-140h218v140h155v-360h-155v142h-218v-142h-155z" />
    <glyph glyph-name="I" unicode="I" horiz-adv-x="249" 
d="M47 0v360h155v-360h-155z" />
    <glyph glyph-name="J" unicode="J" horiz-adv-x="328" 
d="M18 0v78h68q40 0 40 18v264h155v-273q0 -37 -19 -52q-42 -35 -138 -35h-106z" />
    <glyph glyph-name="K" unicode="K" horiz-adv-x="570" 
d="M47 0v360h155v-360h-155zM233 217l158 143h177l-195 -177l201 -183h-178l-161 145q-29 26 -29 37q0 8 9 19z" />
    <glyph glyph-name="L" unicode="L" horiz-adv-x="533" 
d="M47 88v272h155v-266q0 -16 39 -16h274l-1 -78h-287q-14 0 -26 1q-82 3 -118 23.5t-36 63.5z" />
    <glyph glyph-name="M" unicode="M" horiz-adv-x="817" 
d="M47 0v297q0 30 37 49t98 19q20 0 41 -2q75 -8 91 -45l90 -208l100 208q18 37 90 45q21 2 42 2q60 0 97 -19t37 -49v-297h-147v258l-112 -217q-6 -13 -16 -22q-26 -27 -87 -27q-77 0 -102 49l-111 217v-258h-148z" />
    <glyph glyph-name="N" unicode="N" 
d="M47 0v289q0 33 36.5 54t91.5 21q25 0 51 -4q64 -12 86 -55l109 -208v263h147v-298q0 -28 -36 -47t-90 -20q-104 -2 -137 61l-110 207v-263h-148z" />
    <glyph glyph-name="O" unicode="O" horiz-adv-x="601" 
d="M47 283q0 9 4 19q25 58 159 58h183q161 0 161 -77v-205q0 -78 -162 -78h-182q-74 0 -110 13.5t-48 45.5q-4 10 -4 18zM202 258l1 -155q0 -25 51 -25h95q51 0 51 22v158q0 25 -51 25h-95q-52 0 -52 -25z" />
    <glyph glyph-name="P" unicode="P" horiz-adv-x="587" 
d="M47 0v360h360q71 0 113 -20t42 -51v-89q0 -33 -43 -53q-38 -17 -100 -17h-217v-130h-155zM202 209h151q54 0 54 20v35q-4 16 -40 19h-165v-74z" />
    <glyph glyph-name="Q" unicode="Q" horiz-adv-x="604" 
d="M47 78v205q0 77 161 77h184q161 0 161 -77v-205q0 -30 -22 -47q-31 -26 -80 -28l106 -56h-214l-104 53h-31q-161 0 -161 78zM202 103q0 -25 51 -25h94q51 0 51 22v158q0 25 -51 25h-94q-51 0 -51 -25v-155z" />
    <glyph glyph-name="R" unicode="R" horiz-adv-x="597" 
d="M47 360h362q149 0 149 -73v-72q0 -35 -44 -55q-31 -14 -74 -17q-17 -1 -27 -1l-24 1l176 -143h-183l-163 134q-15 12 -12 28q8 46 93 46h63q41 0 41 20v33q0 18 -38 21q-3 1 -10 1h-154v-283h-155v360z" />
    <glyph glyph-name="S" unicode="S" horiz-adv-x="542" 
d="M40 289q0 9 4 18q27 53 143 53h315v-77l-273 -1q-34 -1 -34 -17v-24q0 -4 1 -5q5 -14 39 -16h10h112q50 0 88 -13q57 -18 57 -58v-73q0 -43 -59 -63q-40 -13 -96 -13h-306v78h270q36 6 36 21v26q0 15 -33 17h-129q-78 0 -121 32q-24 18 -24 39v76z" />
    <glyph glyph-name="T" unicode="T" horiz-adv-x="486" 
d="M11 283v77h464v-77h-155v-283h-155v283h-154z" />
    <glyph glyph-name="U" unicode="U" 
d="M47 90v270h155v-268q4 -14 53 -14h105q47 0 52 13l1 3v266h155v-270q0 -35 -16 -50q-41 -40 -145 -40h-199q-111 0 -149 43q-12 14 -12 47z" />
    <glyph glyph-name="V" unicode="V" horiz-adv-x="617" 
d="M-11 360h164l154 -256l158 256h163l-212 -320q-29 -45 -107 -45q-79 0 -108 45z" />
    <glyph glyph-name="W" unicode="W" horiz-adv-x="848" 
d="M11 360h150l93 -250l51 198q7 26 39.5 42t77.5 16q23 0 47 -5q64 -12 75 -53l51 -198l92 250h150l-116 -314q-14 -38 -84 -49q-19 -3 -38 -3q-46 0 -80 14.5t-40 37.5l-60 214l-49 -214q-5 -22 -40 -37t-81 -15q-38 0 -70 11q-42 14 -52 41z" />
    <glyph glyph-name="X" unicode="X" horiz-adv-x="618" 
d="M-11 0l236 184l-224 176h184l120 -101l128 101h184l-224 -176l236 -184h-184l-141 111l-131 -111h-184z" />
    <glyph glyph-name="Y" unicode="Y" horiz-adv-x="616" 
d="M-11 360h177l136 -134l148 134h177l-242 -220v-140h-155v140z" />
    <glyph glyph-name="Z" unicode="Z" horiz-adv-x="549" 
d="M48 85l274 198h-285v77h380q35 0 65 -10q42 -14 42 -42q0 -16 -14 -25l-287 -205h280v-78h-340q-138 0 -138 53q0 15 23 32z" />
    <glyph glyph-name="bracketleft" unicode="[" horiz-adv-x="252" 
d="M47 0v360h180v-54h-43v-252h43v-54h-180z" />
    <glyph glyph-name="backslash" unicode="\" horiz-adv-x="310" 
d="M38 360h108l126 -360h-108z" />
    <glyph glyph-name="bracketright" unicode="]" horiz-adv-x="252" 
d="M25 0v54h43v252h-43v54h180v-360h-180z" />
    <glyph glyph-name="asciicircum" unicode="^" horiz-adv-x="547" 
d="M38 80l236 211l235 -211h-123l-112 108l-113 -108h-123z" />
    <glyph glyph-name="underscore" unicode="_" horiz-adv-x="436" 
d="M38 -18v18h360v-18h-360z" />
    <glyph glyph-name="grave" unicode="`" horiz-adv-x="190" 
d="M-25 352l122 -2l58 -54l-105 1z" />
    <glyph glyph-name="a" unicode="a" horiz-adv-x="633" 
d="M-4 0l199 316q30 48 122 48q91 0 121 -48l199 -316h-162l-49 78h-219l-49 -78h-162zM253 151h127l-73 117z" />
    <glyph glyph-name="b" unicode="b" horiz-adv-x="611" 
d="M47 360h372q107 0 134 -39q9 -13 9 -42v-29q0 -52 -62 -69q64 -14 64 -64v-36q0 -81 -152 -81h-365v360zM202 142v-64h170q35 2 35 20v23q0 18 -38 21h-167zM202 283v-63h171q36 2 36 19v24q0 10 -17 17q-11 3 -19 3h-171z" />
    <glyph glyph-name="c" unicode="c" horiz-adv-x="550" 
d="M47 80v198q0 47 36.5 64.5t132.5 17.5h302v-77h-280q-30 -2 -36 -16v-158q0 -20 14 -27q8 -4 32 -4h13h257v-78h-325q-26 0 -54 6q-92 18 -92 74z" />
    <glyph glyph-name="d" unicode="d" horiz-adv-x="617" 
d="M47 0v360h368q155 0 155 -79v-202q0 -5 -2 -13q-16 -66 -147 -66h-374zM202 78h159q26 0 34 2q16 5 19 24q1 1 1 5v157q-7 17 -55 17h-158v-205z" />
    <glyph glyph-name="e" unicode="e" horiz-adv-x="557" 
d="M47 75v207q0 7 3 16q20 62 147 62h320v-77h-279q-3 -1 -10 -2q-26 -5 -26 -21v-40h315v-78h-315v-40q0 -22 40 -24h275v-78h-298q-172 0 -172 75z" />
    <glyph glyph-name="f" unicode="f" horiz-adv-x="541" 
d="M47 287q0 55 81 69q25 4 82 4h306v-77h-261q-46 0 -52 -18q-1 -1 -1 -5v-40h314v-78h-314v-142h-155v287z" />
    <glyph glyph-name="g" unicode="g" horiz-adv-x="609" 
d="M47 102v169q0 50 39 69.5t138 19.5h292v-77h-286q-24 -2 -28 -15v-175q6 -13 33 -15h123q45 0 49 16v113h155v-115q0 -35 -14 -49q-40 -43 -145 -43h-178q-96 0 -141 24q-26 14 -33 32q-4 12 -4 46z" />
    <glyph glyph-name="h" unicode="h" horiz-adv-x="622" 
d="M47 0v360h155v-140h218v140h155v-360h-155v142h-218v-142h-155z" />
    <glyph glyph-name="i" unicode="i" horiz-adv-x="249" 
d="M47 0v360h155v-360h-155z" />
    <glyph glyph-name="j" unicode="j" horiz-adv-x="328" 
d="M18 0v78h68q40 0 40 18v264h155v-273q0 -37 -19 -52q-42 -35 -138 -35h-106z" />
    <glyph glyph-name="k" unicode="k" horiz-adv-x="570" 
d="M47 0v360h155v-360h-155zM233 217l158 143h177l-195 -177l201 -183h-178l-161 145q-29 26 -29 37q0 8 9 19z" />
    <glyph glyph-name="l" unicode="l" horiz-adv-x="533" 
d="M47 88v272h155v-266q0 -16 39 -16h274l-1 -78h-287q-14 0 -26 1q-82 3 -118 23.5t-36 63.5z" />
    <glyph glyph-name="m" unicode="m" horiz-adv-x="817" 
d="M47 0v297q0 30 37 49t98 19q20 0 41 -2q75 -8 91 -45l90 -208l100 208q18 37 90 45q21 2 42 2q60 0 97 -19t37 -49v-297h-147v258l-112 -217q-6 -13 -16 -22q-26 -27 -87 -27q-77 0 -102 49l-111 217v-258h-148z" />
    <glyph glyph-name="n" unicode="n" 
d="M47 0v289q0 33 36.5 54t91.5 21q25 0 51 -4q64 -12 86 -55l109 -208v263h147v-298q0 -28 -36 -47t-90 -20q-104 -2 -137 61l-110 207v-263h-148z" />
    <glyph glyph-name="o" unicode="o" horiz-adv-x="601" 
d="M47 283q0 9 4 19q25 58 159 58h183q161 0 161 -77v-205q0 -78 -162 -78h-182q-74 0 -110 13.5t-48 45.5q-4 10 -4 18zM202 258l1 -155q0 -25 51 -25h95q51 0 51 22v158q0 25 -51 25h-95q-52 0 -52 -25z" />
    <glyph glyph-name="p" unicode="p" horiz-adv-x="587" 
d="M47 0v360h360q71 0 113 -20t42 -51v-89q0 -33 -43 -53q-38 -17 -100 -17h-217v-130h-155zM202 209h151q54 0 54 20v35q-4 16 -40 19h-165v-74z" />
    <glyph glyph-name="q" unicode="q" horiz-adv-x="604" 
d="M47 78v205q0 77 161 77h184q161 0 161 -77v-205q0 -30 -22 -47q-31 -26 -80 -28l106 -56h-214l-104 53h-31q-161 0 -161 78zM202 103q0 -25 51 -25h94q51 0 51 22v158q0 25 -51 25h-94q-51 0 -51 -25v-155z" />
    <glyph glyph-name="r" unicode="r" horiz-adv-x="597" 
d="M47 360h362q149 0 149 -73v-72q0 -35 -44 -55q-31 -14 -74 -17q-17 -1 -27 -1l-24 1l176 -143h-183l-163 134q-15 12 -12 28q8 46 93 46h63q41 0 41 20v33q0 18 -38 21q-3 1 -10 1h-154v-283h-155v360z" />
    <glyph glyph-name="s" unicode="s" horiz-adv-x="542" 
d="M40 289q0 9 4 18q27 53 143 53h315v-77l-273 -1q-34 -1 -34 -17v-24q0 -4 1 -5q5 -14 39 -16h10h112q50 0 88 -13q57 -18 57 -58v-73q0 -43 -59 -63q-40 -13 -96 -13h-306v78h270q36 6 36 21v26q0 15 -33 17h-129q-78 0 -121 32q-24 18 -24 39v76z" />
    <glyph glyph-name="t" unicode="t" horiz-adv-x="486" 
d="M11 283v77h464v-77h-155v-283h-155v283h-154z" />
    <glyph glyph-name="u" unicode="u" 
d="M47 90v270h155v-268q4 -14 53 -14h105q47 0 52 13l1 3v266h155v-270q0 -35 -16 -50q-41 -40 -145 -40h-199q-110 0 -149 43q-12 14 -12 47z" />
    <glyph glyph-name="v" unicode="v" horiz-adv-x="617" 
d="M-11 360h164l154 -256l158 256h163l-212 -320q-29 -45 -107 -45q-79 0 -108 45z" />
    <glyph glyph-name="w" unicode="w" horiz-adv-x="848" 
d="M11 360h150l93 -250l51 198q7 26 39.5 42t77.5 16q23 0 47 -5q64 -12 75 -53l51 -198l92 250h150l-116 -314q-14 -38 -84 -49q-19 -3 -38 -3q-46 0 -80 14.5t-40 37.5l-60 214l-49 -214q-5 -22 -40 -37t-81 -15q-38 0 -70 11q-42 14 -52 41z" />
    <glyph glyph-name="x" unicode="x" horiz-adv-x="618" 
d="M-11 0l236 184l-224 176h184l120 -101l128 101h184l-224 -176l236 -184h-184l-141 111l-131 -111h-184z" />
    <glyph glyph-name="y" unicode="y" horiz-adv-x="616" 
d="M-11 360h177l136 -134l148 134h177l-242 -220v-140h-155v140z" />
    <glyph glyph-name="z" unicode="z" horiz-adv-x="549" 
d="M48 85l274 198h-285v77h380q35 0 65 -10q42 -14 42 -42q0 -16 -14 -25l-287 -205h280v-78h-340q-138 0 -138 53q0 15 23 32z" />
    <glyph glyph-name="braceleft" unicode="{" horiz-adv-x="339" 
d="M38 180q22 0 41 8q24 10 24 28v161q0 42 89 42h109v-32h-13q-57 0 -57 -27v-136q0 -21 -31 -33q-22 -10 -49 -11q14 -1 27 -3q53 -12 53 -40v-136q0 -28 57 -28h13v-32h-109q-89 0 -89 42v161q0 15 -18.5 25.5t-46.5 10.5z" />
    <glyph glyph-name="bar" unicode="|" horiz-adv-x="184" 
d="M38 0v360h108v-360h-108z" />
    <glyph glyph-name="braceright" unicode="}" horiz-adv-x="339" 
d="M38 -59v32h12q57 0 57 28v136q0 20 31 32q23 10 49 11q-26 1 -49 11q-31 12 -31 33v136q0 27 -57 27h-12v32h108q90 0 90 -42v-161q0 -35 65 -36q-65 0 -65 -36v-161q0 -42 -90 -42h-108z" />
    <glyph glyph-name="asciitilde" unicode="~" horiz-adv-x="491" 
d="M38 139q0 43 38 65q32 17 78 17q28 0 61 -6l89 -17l18 -3q32 -4 45 13q4 4 5 9q0 1 1 3v2h80v-11q-13 -72 -115 -72q-29 0 -62 7l-81 16l-25 4q-42 6 -50 -22q-1 -2 -1 -5h-81z" />
    <glyph glyph-name="nonbreakingspace" unicode="&#xa0;" horiz-adv-x="290" 
 />
    <glyph glyph-name="exclamdown" unicode="&#xa1;" horiz-adv-x="265" 
d="M54 0v262h157v-262h-157zM47 318q0 21 34 33q25 9 51 9q34 0 60 -12.5t26 -30.5q0 -17 -24.5 -29.5t-60.5 -12.5t-61 12.5t-25 30.5z" />
    <glyph glyph-name="cent" unicode="&#xa2;" horiz-adv-x="442" 
 />
    <glyph glyph-name="sterling" unicode="&#xa3;" horiz-adv-x="672" 
 />
    <glyph glyph-name="currency" unicode="&#xa4;" horiz-adv-x="457" 
 />
    <glyph glyph-name="yen" unicode="&#xa5;" horiz-adv-x="646" 
d="M4 360h177l136 -134l148 134h177l-169 -157h158v-43h-205l-26 -20l1 -17h230v-45h-230l-1 -78h-155v79h-224v45h224v16l-19 20h-204v43h157z" />
    <glyph glyph-name="section" unicode="&#xa7;" horiz-adv-x="868" 
 />
    <glyph glyph-name="dieresis" unicode="&#xa8;" horiz-adv-x="298" 
d="M-11 332q-2 19 28 30q22 8 45 8q31 0 52 -10.5t21 -25.5q0 -16 -21.5 -26.5t-51.5 -10.5q-23 0 -44 7q-27 10 -29 28zM163 332q-1 19 29 30q22 8 45 8q30 0 51 -11t21 -25q0 -16 -21.5 -26.5t-51.5 -10.5q-22 0 -43 7q-29 10 -30 28z" />
    <glyph glyph-name="copyright" unicode="&#xa9;" horiz-adv-x="862" 
 />
    <glyph glyph-name="ordfeminine" unicode="&#xaa;" horiz-adv-x="447" 
 />
    <glyph glyph-name="guillemotleft" unicode="&#xab;" horiz-adv-x="453" 
d="M211 161l122 88h94l-156 -113l157 -113h-99l-115 82q-24 17 -23 31q1 11 20 25zM45 161l122 88h94l-157 -113l158 -113h-99l-115 82q-24 17 -23 31q1 11 20 25z" />
    <glyph glyph-name="logicalnot" unicode="&#xac;" horiz-adv-x="604" 
d="M38 180v54h528v-126h-84v72h-444z" />
    <glyph glyph-name="macron" unicode="&#xaf;" horiz-adv-x="281" 
d="M4 301v49h273v-49h-273z" />
    <glyph glyph-name="macron" unicode="&#x2c9;" horiz-adv-x="281" 
d="M4 301v49h273v-49h-273z" />
    <glyph glyph-name="degree" unicode="&#xb0;" horiz-adv-x="354" 
 />
    <glyph glyph-name="acute" unicode="&#xb4;" horiz-adv-x="205" 
d="M51 296l58 54l122 1l-75 -55h-105z" />
    <glyph glyph-name="paragraph" unicode="&#xb6;" horiz-adv-x="606" 
 />
    <glyph glyph-name="periodcentered" unicode="&#xb7;" horiz-adv-x="221" 
d="M25 151q-2 22 33 34q26 9 52 9q36 0 60.5 -12.5t24.5 -29.5q0 -18 -25 -30.5t-60 -12.5q-26 0 -51 9q-32 11 -34 33z" />
    <glyph glyph-name="periodcentered" unicode="&#x2219;" horiz-adv-x="221" 
d="M25 151q-2 22 33 34q26 9 52 9q36 0 60.5 -12.5t24.5 -29.5q0 -18 -25 -30.5t-60 -12.5q-26 0 -51 9q-32 11 -34 33z" />
    <glyph glyph-name="cedilla" unicode="&#xb8;" horiz-adv-x="171" 
d="M4 -72l49 64h114l-69 -64h-94z" />
    <glyph glyph-name="ordmasculine" unicode="&#xba;" horiz-adv-x="447" 
 />
    <glyph glyph-name="guillemotright" unicode="&#xbb;" horiz-adv-x="453" 
d="M25 249h99l115 -82q24 -18 23 -31q-1 -11 -20 -25l-122 -88h-94l156 113zM191 249h99l116 -82q24 -17 22 -31q-1 -11 -20 -25l-122 -88h-94l157 113z" />
    <glyph glyph-name="questiondown" unicode="&#xbf;" horiz-adv-x="540" 
d="M47 78v81q0 6 4 14q27 51 132 51h64v38l155 -1v-50q0 -15 -17 -29q-34 -28 -108 -28h-37h-7q-20 0 -28 -8q-3 -3 -3 -10v-40q0 -15 34 -18h8h271v-78h-322q-125 0 -144 64q-2 6 -2 14zM242 318q1 18 25.5 30t59.5 12t60 -12.5t25 -30.5q0 -17 -24.5 -29.5t-60.5 -12.5
q-27 0 -52 9q-34 12 -33 34z" />
    <glyph glyph-name="Agrave" unicode="&#xc0;" horiz-adv-x="633" 
d="M-4 0l199 316q30 48 122 48q91 0 121 -48l199 -316h-162l-49 78h-219l-49 -78h-162zM253 151h127l-73 117zM196 438l122 -1l58 -54h-105z" />
    <glyph glyph-name="Aacute" unicode="&#xc1;" horiz-adv-x="633" 
d="M-4 0l199 316q30 48 122 48q91 0 121 -48l199 -316h-162l-49 78h-219l-49 -78h-162zM253 151h127l-73 117zM265 382l58 54l122 1l-75 -54z" />
    <glyph glyph-name="Acircumflex" unicode="&#xc2;" horiz-adv-x="633" 
d="M-4 0l199 316q30 48 122 48q91 0 121 -48l199 -316h-162l-49 78h-219l-49 -78h-162zM253 151h127l-73 117zM160 383l72 54h161l79 -55h-102l-60 41l-50 -40h-100z" />
    <glyph glyph-name="Atilde" unicode="&#xc3;" horiz-adv-x="633" 
d="M-4 0l199 316q30 48 122 48q91 0 121 -48l199 -316h-162l-49 78h-219l-49 -78h-162zM253 151h127l-73 117zM132 384v44l86 10q12 2 29 2q18 0 27 -1l14 -2l11 -1l65 -8q5 -1 21 -1q14 0 28 2l21 3l66 7v-44l-79 -9q-6 -2 -15 -2q-21 -2 -48 0l-7 1l-18 2l-61 8
q-18 2 -51 -1l-29 -2z" />
    <glyph glyph-name="Adieresis" unicode="&#xc4;" horiz-adv-x="633" 
d="M-4 0l199 316q30 48 122 48q91 0 121 -48l199 -316h-162l-49 78h-219l-49 -78h-162zM253 151h127l-73 117zM129 425q-1 17 24.5 30t61.5 13t60.5 -12.5t24.5 -29.5q0 -18 -25 -30.5t-60 -12.5q-26 0 -51 9q-34 12 -35 33zM334 425q-1 18 24 30.5t61 12.5t61 -12.5
t25 -30.5q0 -17 -25 -29.5t-60 -12.5q-27 0 -51 9q-34 11 -35 33z" />
    <glyph glyph-name="Aring" unicode="&#xc5;" horiz-adv-x="633" 
d="M-4 0l199 316q30 48 122 48q91 0 121 -48l199 -316h-162l-49 78h-219l-49 -78h-162zM253 151h127l-73 117zM291 415q0 -15 31 -15q30 0 30 15t-30 15q-31 0 -31 -15zM226 415q0 19 27 32.5t65 13.5t64.5 -13.5t26.5 -32.5t-26.5 -32.5t-64.5 -13.5t-65 13.5t-27 32.5z
" />
    <glyph glyph-name="AE" unicode="&#xc6;" horiz-adv-x="924" 
 />
    <glyph glyph-name="Ccedilla" unicode="&#xc7;" horiz-adv-x="550" 
d="M47 80v198q0 47 36.5 64.5t132.5 17.5h302v-77h-280q-30 -2 -36 -16v-158q0 -20 14 -27q8 -4 32 -4h13h257v-78h-325q-26 0 -54 6q-92 18 -92 74zM219 -72l49 64h113l-69 -64h-93z" />
    <glyph glyph-name="Egrave" unicode="&#xc8;" horiz-adv-x="557" 
d="M47 75v207q0 7 3 16q20 62 147 62h320v-77h-279q-3 -1 -10 -2q-26 -5 -26 -21v-40h315v-78h-315v-40q0 -22 40 -24h275v-78h-298q-172 0 -172 75zM158 438l122 -1l58 -54h-105z" />
    <glyph glyph-name="Eacute" unicode="&#xc9;" horiz-adv-x="557" 
d="M47 75v207q0 7 3 16q20 62 147 62h320v-77h-279q-3 -1 -10 -2q-26 -5 -26 -21v-40h315v-78h-315v-40q0 -22 40 -24h275v-78h-298q-172 0 -172 75zM227 382l58 54l122 1l-75 -54z" />
    <glyph glyph-name="Ecircumflex" unicode="&#xca;" horiz-adv-x="557" 
d="M47 75v207q0 7 3 16q20 62 147 62h320v-77h-279q-3 -1 -10 -2q-26 -5 -26 -21v-40h315v-78h-315v-40q0 -22 40 -24h275v-78h-298q-172 0 -172 75zM122 383l72 54h161l79 -55h-102l-60 41l-50 -40h-100z" />
    <glyph glyph-name="Edieresis" unicode="&#xcb;" horiz-adv-x="557" 
d="M47 75v207q0 7 3 16q20 62 147 62h320v-77h-279q-3 -1 -10 -2q-26 -5 -26 -21v-40h315v-78h-315v-40q0 -22 40 -24h275v-78h-298q-172 0 -172 75zM118 419q-2 19 28 29q22 8 45 8q31 0 52 -10.5t21 -25.5t-21.5 -26t-51.5 -11q-23 0 -44 8q-27 9 -29 28zM292 419
q-1 18 29 29q22 8 45 8q30 0 51 -10.5t21 -25.5t-21.5 -25.5t-51.5 -10.5q-22 0 -43 7q-29 10 -30 28z" />
    <glyph glyph-name="Igrave" unicode="&#xcc;" horiz-adv-x="249" 
d="M47 0v360h155v-360h-155zM4 438l122 -1l58 -54h-105z" />
    <glyph glyph-name="Iacute" unicode="&#xcd;" horiz-adv-x="249" 
d="M47 0v360h155v-360h-155zM73 382l58 54l122 1l-75 -54z" />
    <glyph glyph-name="Icircumflex" unicode="&#xce;" horiz-adv-x="249" 
d="M47 0v360h155v-360h-155zM-32 383l72 54h161l79 -55h-102l-60 41l-50 -40h-100z" />
    <glyph glyph-name="Idieresis" unicode="&#xcf;" horiz-adv-x="249" 
d="M47 0v360h155v-360h-155zM-36 419q-2 19 28 29q22 8 45 8q31 0 52 -10.5t21 -25.5t-21.5 -26t-51.5 -11q-23 0 -44 8q-27 9 -29 28zM138 419q-1 18 29 29q22 8 45 8q30 0 51 -10.5t21 -25.5t-21.5 -25.5t-51.5 -10.5q-22 0 -43 7q-29 10 -30 28z" />
    <glyph glyph-name="Ntilde" unicode="&#xd1;" 
d="M47 0v289q0 33 36.5 54t91.5 21q25 0 51 -4q64 -12 86 -55l109 -208v263h147v-298q0 -28 -36 -47t-90 -20q-104 -2 -137 61l-110 207v-263h-148zM123 384v44l86 10q12 2 29 2q18 0 27 -1l14 -2l11 -1l65 -8q5 -1 21 -1q14 0 28 2l21 3l66 7v-44l-79 -9q-6 -2 -15 -2
q-21 -2 -48 0l-7 1l-18 2l-61 8q-18 2 -51 -1l-29 -2z" />
    <glyph glyph-name="Ograve" unicode="&#xd2;" horiz-adv-x="601" 
d="M47 283q0 9 4 19q25 58 159 58h183q161 0 161 -77v-205q0 -78 -162 -78h-182q-74 0 -110 13.5t-48 45.5q-4 10 -4 18zM202 258l1 -155q0 -25 51 -25h95q51 0 51 22v158q0 25 -51 25h-95q-52 0 -52 -25zM180 438l122 -1l58 -54h-105z" />
    <glyph glyph-name="Oacute" unicode="&#xd3;" horiz-adv-x="601" 
d="M47 283q0 9 4 19q25 58 159 58h183q161 0 161 -77v-205q0 -78 -162 -78h-182q-74 0 -110 13.5t-48 45.5q-4 10 -4 18zM202 258l1 -155q0 -25 51 -25h95q51 0 51 22v158q0 25 -51 25h-95q-52 0 -52 -25zM249 382l58 54l122 1l-75 -54z" />
    <glyph glyph-name="Ocircumflex" unicode="&#xd4;" horiz-adv-x="601" 
d="M47 283q0 9 4 19q25 58 159 58h183q161 0 161 -77v-205q0 -78 -162 -78h-182q-74 0 -110 13.5t-48 45.5q-4 10 -4 18zM202 258l1 -155q0 -25 51 -25h95q51 0 51 22v158q0 25 -51 25h-95q-52 0 -52 -25zM144 383l72 54h161l79 -55h-102l-60 41l-50 -40h-100z" />
    <glyph glyph-name="Otilde" unicode="&#xd5;" horiz-adv-x="601" 
d="M47 283q0 9 4 19q25 58 159 58h183q161 0 161 -77v-205q0 -78 -162 -78h-182q-74 0 -110 13.5t-48 45.5q-4 10 -4 18zM202 258l1 -155q0 -25 51 -25h95q51 0 51 22v158q0 25 -51 25h-95q-52 0 -52 -25zM116 384v44l86 10q12 2 29 2q18 0 27 -1l14 -2l11 -1l65 -8
q5 -1 21 -1q14 0 28 2l21 3l66 7v-44l-79 -9q-6 -2 -15 -2q-21 -2 -48 0l-7 1l-18 2l-61 8q-18 2 -51 -1l-29 -2z" />
    <glyph glyph-name="Odieresis" unicode="&#xd6;" horiz-adv-x="601" 
d="M47 283q0 9 4 19q25 58 159 58h183q161 0 161 -77v-205q0 -78 -162 -78h-182q-74 0 -110 13.5t-48 45.5q-4 10 -4 18zM202 258l1 -155q0 -25 51 -25h95q51 0 51 22v158q0 25 -51 25h-95q-52 0 -52 -25zM103 425q-2 22 33 34q25 9 52 9q36 0 60.5 -12.5t24.5 -29.5
q0 -18 -25 -30.5t-60 -12.5q-27 0 -51 9q-32 11 -34 33zM308 425q-1 18 24 30.5t61 12.5t60.5 -12.5t24.5 -29.5q0 -18 -25 -30.5t-60 -12.5q-26 0 -51 9q-33 11 -34 33z" />
    <glyph glyph-name="Oslash" unicode="&#xd8;" horiz-adv-x="602" 
d="M47 77v207q0 8 4 17q14 30 42.5 42.5t90.5 16.5h24h183q67 0 106 -12l16 13h42l-31 -25q30 -22 30 -53v-205q0 -29 -17 -44t-62 -26q-29 -8 -84 -8h-181q-65 0 -103 12l-15 -12l-44 -1l32 25q-33 27 -33 53zM205 89q7 -11 31 -11l18 -1h94q28 0 38.5 4.5t10.5 8.5v148z
M231 283q-11 -1 -19 -4q-11 -6 -11 -11l1 -10v-137l193 149l-3 4q-10 7 -22 9h-139z" />
    <glyph glyph-name="Ugrave" unicode="&#xd9;" 
d="M47 90v270h155v-268q4 -14 53 -14h105q47 0 52 13l1 3v266h155v-270q0 -35 -16 -50q-41 -40 -145 -40h-199q-111 0 -149 43q-12 14 -12 47zM187 438l122 -1l58 -54h-105z" />
    <glyph glyph-name="Uacute" unicode="&#xda;" 
d="M47 90v270h155v-268q4 -14 53 -14h105q47 0 52 13l1 3v266h155v-270q0 -35 -16 -50q-41 -40 -145 -40h-199q-111 0 -149 43q-12 14 -12 47zM256 382l58 54l122 1l-75 -54z" />
    <glyph glyph-name="Ucircumflex" unicode="&#xdb;" 
d="M47 90v270h155v-268q4 -14 53 -14h105q47 0 52 13l1 3v266h155v-270q0 -35 -16 -50q-41 -40 -145 -40h-199q-111 0 -149 43q-12 14 -12 47zM151 383l72 54h161l79 -55h-102l-60 41l-50 -40h-100z" />
    <glyph glyph-name="Udieresis" unicode="&#xdc;" 
d="M47 90v270h155v-268q4 -14 53 -14h105q47 0 52 13l1 3v266h155v-270q0 -35 -16 -50q-41 -40 -145 -40h-199q-111 0 -149 43q-12 14 -12 47zM119 425q-1 18 24 30.5t61 12.5t61 -12.5t25 -29.5q0 -18 -25 -30.5t-60 -12.5q-26 0 -51 9q-34 12 -35 33zM324 425q-2 22 33 34
q26 9 52 9q36 0 61 -12.5t25 -30.5q0 -17 -25 -29.5t-60 -12.5q-27 0 -51 8q-33 12 -35 34z" />
    <glyph glyph-name="germandbls" unicode="&#xdf;" horiz-adv-x="589" 
d="M47 0v283q0 5 3 15q20 62 145 62h153q75 0 114 -29q23 -17 23 -36v-35q0 -30 -47 -45q4 0 10 -1q53 -10 78 -26q38 -25 38 -49v-64q0 -35 -41 -55t-112 -20h-177v80h136q38 2 38 21v29q0 4 -1 5q-7 16 -44 19h-129v77h56q26 0 34 11q2 2 3 7q1 1 1 4v8q0 5 -6 11
q-16 10 -34 9h-38q-21 0 -35 -8q-9 -6 -9 -12v-261h-159z" />
    <glyph glyph-name="agrave" unicode="&#xe0;" horiz-adv-x="545" 
 />
    <glyph glyph-name="aacute" unicode="&#xe1;" horiz-adv-x="545" 
 />
    <glyph glyph-name="acircumflex" unicode="&#xe2;" horiz-adv-x="545" 
 />
    <glyph glyph-name="atilde" unicode="&#xe3;" horiz-adv-x="545" 
 />
    <glyph glyph-name="adieresis" unicode="&#xe4;" horiz-adv-x="633" 
d="M-4 0l199 316q30 48 122 48q91 0 121 -48l199 -316h-162l-49 78h-219l-49 -78h-162zM253 151h127l-73 117zM129 425q-1 17 24.5 30t61.5 13t60.5 -12.5t24.5 -29.5q0 -18 -25 -30.5t-60 -12.5q-26 0 -51 9q-34 12 -35 33zM334 425q-1 18 24 30.5t61 12.5t61 -12.5
t25 -30.5q0 -17 -25 -29.5t-60 -12.5q-27 0 -51 9q-34 11 -35 33z" />
    <glyph glyph-name="aring" unicode="&#xe5;" horiz-adv-x="545" 
 />
    <glyph glyph-name="ae" unicode="&#xe6;" horiz-adv-x="858" 
 />
    <glyph glyph-name="ccedilla" unicode="&#xe7;" horiz-adv-x="442" 
 />
    <glyph glyph-name="egrave" unicode="&#xe8;" horiz-adv-x="536" 
 />
    <glyph glyph-name="eacute" unicode="&#xe9;" horiz-adv-x="536" 
 />
    <glyph glyph-name="ecircumflex" unicode="&#xea;" horiz-adv-x="536" 
 />
    <glyph glyph-name="edieresis" unicode="&#xeb;" horiz-adv-x="536" 
 />
    <glyph glyph-name="igrave" unicode="&#xec;" horiz-adv-x="231" 
 />
    <glyph glyph-name="iacute" unicode="&#xed;" horiz-adv-x="231" 
 />
    <glyph glyph-name="icircumflex" unicode="&#xee;" horiz-adv-x="231" 
 />
    <glyph glyph-name="idieresis" unicode="&#xef;" horiz-adv-x="231" 
 />
    <glyph glyph-name="ntilde" unicode="&#xf1;" horiz-adv-x="542" 
 />
    <glyph glyph-name="ograve" unicode="&#xf2;" horiz-adv-x="550" 
 />
    <glyph glyph-name="oacute" unicode="&#xf3;" horiz-adv-x="550" 
 />
    <glyph glyph-name="ocircumflex" unicode="&#xf4;" horiz-adv-x="550" 
 />
    <glyph glyph-name="otilde" unicode="&#xf5;" horiz-adv-x="550" 
 />
    <glyph glyph-name="odieresis" unicode="&#xf6;" horiz-adv-x="601" 
d="M47 283q0 9 4 19q25 58 159 58h183q161 0 161 -77v-205q0 -78 -162 -78h-182q-74 0 -110 13.5t-48 45.5q-4 10 -4 18zM202 258l1 -155q0 -25 51 -25h95q51 0 51 22v158q0 25 -51 25h-95q-52 0 -52 -25zM103 425q-2 22 33 34q25 9 52 9q36 0 60.5 -12.5t24.5 -29.5
q0 -18 -25 -30.5t-60 -12.5q-27 0 -51 9q-32 11 -34 33zM308 425q-1 18 24 30.5t61 12.5t60.5 -12.5t24.5 -29.5q0 -18 -25 -30.5t-60 -12.5q-26 0 -51 9q-33 11 -34 33z" />
    <glyph glyph-name="oslash" unicode="&#xf8;" horiz-adv-x="558" 
 />
    <glyph glyph-name="ugrave" unicode="&#xf9;" horiz-adv-x="542" 
 />
    <glyph glyph-name="uacute" unicode="&#xfa;" horiz-adv-x="542" 
 />
    <glyph glyph-name="ucircumflex" unicode="&#xfb;" horiz-adv-x="542" 
 />
    <glyph glyph-name="udieresis" unicode="&#xfc;" 
d="M47 90v270h155v-268q4 -14 53 -14h105q47 0 52 13l1 3v266h155v-270q0 -35 -16 -50q-41 -40 -145 -40h-199q-110 0 -149 43q-12 14 -12 47zM119 425q-1 18 24 30.5t61 12.5t61 -12.5t25 -29.5q0 -18 -25 -30.5t-60 -12.5q-26 0 -51 9q-34 12 -35 33zM324 425q-2 22 33 34
q26 9 52 9q36 0 61 -12.5t25 -30.5q0 -17 -25 -29.5t-60 -12.5q-27 0 -51 8q-33 12 -35 34z" />
    <glyph glyph-name="ydieresis" unicode="&#xff;" horiz-adv-x="543" 
 />
    <glyph glyph-name="dotlessi" unicode="&#x131;" horiz-adv-x="231" 
d="M47 0v270h137v-270h-137z" />
    <glyph glyph-name="OE" unicode="&#x152;" horiz-adv-x="914" 
 />
    <glyph glyph-name="oe" unicode="&#x153;" horiz-adv-x="847" 
 />
    <glyph glyph-name="Ydieresis" unicode="&#x178;" horiz-adv-x="616" 
 />
    <glyph glyph-name="florin" unicode="&#x192;" horiz-adv-x="459" 
 />
    <glyph glyph-name="circumflex" unicode="&#x2c6;" horiz-adv-x="320" 
d="M4 296l72 55h161l79 -55h-102l-60 41l-50 -41h-100z" />
    <glyph glyph-name="caron" unicode="&#x2c7;" horiz-adv-x="320" 
d="M4 351h102l60 -41l51 41h99l-72 -55h-160z" />
    <glyph glyph-name="breve" unicode="&#x2d8;" horiz-adv-x="296" 
d="M4 361h94l50 -35l50 35h94q-6 -28 -47.5 -46.5t-96.5 -18.5t-96.5 18.5t-47.5 46.5z" />
    <glyph glyph-name="ring" unicode="&#x2da;" horiz-adv-x="191" 
d="M65 316q0 -15 31 -15q30 0 30 15q0 16 -30 16q-31 0 -31 -16zM4 316q0 19 27 32.5t65 13.5t64.5 -13.5t26.5 -32.5t-26.5 -32.5t-64.5 -13.5t-65 13.5t-27 32.5z" />
    <glyph glyph-name="tilde" unicode="&#x2dc;" horiz-adv-x="376" 
d="M4 298v43l86 11q12 1 29 1q18 0 27 -1l14 -1l11 -1l65 -9q5 -1 21 -1q14 0 28 2l21 3l66 7v-43l-79 -10q-6 -1 -15 -2q-21 -2 -48 0l-7 1l-18 2l-61 9q-18 1 -51 -1l-29 -3z" />
    <glyph glyph-name="endash" unicode="&#x2013;" horiz-adv-x="607" 
d="M34 145v71h539v-71h-539z" />
    <glyph glyph-name="emdash" unicode="&#x2014;" horiz-adv-x="518" 
d="M25 131v67h468v-67h-468z" />
    <glyph glyph-name="quoteleft" unicode="&#x2018;" horiz-adv-x="224" 
d="M36 292l65 68h98l-50 -53q50 -12 49 -40q-1 -19 -26 -31.5t-60 -12.5q-36 0 -61.5 13t-25.5 33q0 11 11 23z" />
    <glyph glyph-name="quoteright" unicode="&#x2019;" horiz-adv-x="224" 
d="M25 224l50 53q-50 12 -49 40q1 18 26 30.5t60 12.5q27 0 53 -10q34 -12 34 -35q0 -12 -11 -23l-65 -68h-98z" />
    <glyph glyph-name="quotesinglbase" unicode="&#x201a;" horiz-adv-x="224" 
d="M25 -54l50 54q-50 12 -49 40q1 19 26 31t60 12t61 -13t26 -32q0 -11 -11 -23l-65 -68z" />
    <glyph glyph-name="quotedblleft" unicode="&#x201c;" horiz-adv-x="424" 
d="M236 292l66 68h97l-50 -53q51 -12 50 -40q-1 -19 -26 -31.5t-60 -12.5q-36 0 -62 13.5t-26 31.5q0 13 11 24zM36 292l65 68h98l-50 -53q50 -12 49 -40q-1 -19 -26 -31.5t-60 -12.5q-36 0 -61.5 13t-25.5 33q0 11 11 23z" />
    <glyph glyph-name="quotedblright" unicode="&#x201d;" horiz-adv-x="424" 
d="M25 224l50 53q-50 12 -49 40q1 18 26 30.5t60 12.5q27 0 53 -10q34 -12 34 -35q0 -12 -11 -23l-65 -68h-98zM225 224l51 53q-50 12 -50 40q0 22 34 34q25 9 52 9t53 -10q34 -12 34 -35q0 -10 -10 -23l-66 -68h-98z" />
    <glyph glyph-name="quotedblbase" unicode="&#x201e;" horiz-adv-x="424" 
d="M25 -54l50 54q-50 12 -49 40q1 19 26 31t60 12t61 -13t26 -32q0 -11 -11 -23l-65 -68zM225 -54l51 54q-50 11 -50 40q0 22 34 34q25 9 52 9q36 0 61.5 -13t25.5 -32q0 -9 -10 -23l-66 -68z" />
    <glyph glyph-name="dagger" unicode="&#x2020;" horiz-adv-x="486" 
 />
    <glyph glyph-name="daggerdbl" unicode="&#x2021;" horiz-adv-x="627" 
d="M4 41v58h245v82h-245v57h245v123h129v-123h245v-57h-245v-82h245v-58h-245v-123h-129v123h-245z" />
    <glyph glyph-name="bullet" unicode="&#x2022;" horiz-adv-x="354" 
d="M38 180q0 29 40.5 49.5t98.5 20.5q59 0 99 -20.5t40 -49.5t-40 -49t-99 -20q-58 0 -98.5 20t-40.5 49z" />
    <glyph glyph-name="ellipsis" unicode="&#x2026;" horiz-adv-x="734" 
d="M38 36q0 21 33 33q25 9 51 9q35 0 59 -12.5t24 -29.5t-24 -29.5t-59 -12.5q-26 0 -51 9q-33 12 -33 33zM283 36q0 18 24.5 30t58.5 12q35 0 60 -12.5t25 -29.5t-25 -29.5t-60 -12.5q-34 0 -58.5 12t-24.5 30zM528 36q0 17 24.5 29.5t59.5 12.5t59.5 -12.5t24.5 -29.5
t-24.5 -29.5t-59.5 -12.5t-59.5 12.5t-24.5 29.5z" />
    <glyph glyph-name="perthousand" unicode="&#x2030;" horiz-adv-x="1297" 
d="M515 58v68q0 4 2 9q20 49 121 49h112q27 0 54 -6q69 -13 69 -52v-68q0 -14 -14 -28q-29 -29 -109 -29h-112q-101 0 -121 49q-2 4 -2 8zM636 83q0 -9 10.5 -14.5t24.5 -5.5h46q26 0 33 11q2 3 2 9v18q0 10 -10 15.5t-25 5.5h-46q-17 0 -29 -9q-6 -4 -6 -12v-18zM170 0
l405 360h140l-402 -360h-143zM4 235v68q0 3 2 8q18 49 121 49h112q7 0 19 -1q87 -7 102 -48q2 -5 2 -8v-68q0 -7 -6 -18q-20 -33 -98 -39q-12 -1 -19 -1h-112q-7 0 -19 1q-86 7 -102 48q-2 5 -2 9zM125 259q0 -9 9 -14q13 -6 26 -6h46q13 0 26 6q9 5 9 14v19q0 9 -10 14.5
t-25 5.5h-46q-26 0 -33 -12q-2 -3 -2 -8v-19zM935 58v68q0 38 66 52q28 6 57 6h112q29 0 57 -6q66 -14 66 -52v-68q0 -7 -6 -18q-20 -33 -98 -39h-19h-112h-19q-86 7 -102 49q-2 5 -2 8zM1056 83q0 -10 10 -15t25 -5h46q26 0 33 11q2 3 2 9v18q0 10 -10 15.5t-25 5.5h-46
q-26 0 -33 -12q-2 -3 -2 -9v-18z" />
    <glyph glyph-name="guilsinglleft" unicode="&#x2039;" horiz-adv-x="287" 
d="M45 161l122 88h94l-157 -113l158 -113h-99l-115 82q-24 17 -23 31q1 11 20 25z" />
    <glyph glyph-name="guilsinglright" unicode="&#x203a;" horiz-adv-x="287" 
d="M25 249h99l115 -82q24 -18 23 -31q-1 -11 -20 -25l-122 -88h-94l156 113z" />
    <glyph glyph-name="fraction" unicode="&#x2044;" horiz-adv-x="310" 
d="M-18 0l268 360h92l-266 -360h-94z" />
    <glyph glyph-name="trademark" unicode="&#x2122;" horiz-adv-x="715" 
 />
    <glyph glyph-name="fi" unicode="&#xf001;" horiz-adv-x="607" 
 />
    <glyph glyph-name="fl" unicode="&#xf002;" horiz-adv-x="249" 
 />
    <glyph glyph-name="glyph204" horiz-adv-x="290" 
 />
    <glyph glyph-name="register" horiz-adv-x="862" 
 />
  </font>
</defs>
</svg>
